<?xml version="1.0" encoding="iso-8859-1"?>
<!-- Generator: Adobe Illustrator 16.0.0, SVG Export Plug-In . SVG Version: 6.00 Build 0)  -->
<!DOCTYPE svg PUBLIC "-//W3C//DTD SVG 1.1//EN" "http://www.w3.org/Graphics/SVG/1.1/DTD/svg11.dtd">
<svg version="1.1" id="Capa_1" xmlns="http://www.w3.org/2000/svg" xmlns:xlink="http://www.w3.org/1999/xlink" x="0px" y="0px"
	 width="279.212px" height="279.212px" viewBox="0 0 279.212 279.212" style="enable-background:new 0 0 279.212 279.212;"
	 xml:space="preserve">
<g>
	<g>
		<path d="M256.722,225.194l-1.476,0.362c-10.626-14.529-5.924-28.35-5.722-28.914c0.684-1.828,0.311-3.873-0.974-5.344
			c-1.274-1.461-3.252-2.107-5.152-1.688l-5.69,1.269l-0.472-0.062l-84.341,21.045c-0.342,0.093-0.684,0.113-1.021,0.124
			c-0.057,0.005-0.104,0.036-0.166,0.036c-0.03-0.011-0.067,0-0.098,0c0,0,0,0-0.006,0c-0.005,0-0.005-0.006-0.01-0.006
			c-0.353,0-0.715-0.036-1.067-0.104L37.961,188.45l-21.983,4.205l-5.333-1.025c-2.015-0.404-4.062,0.414-5.266,2.061
			c-14.587,19.791,5.028,44.388,5.875,45.423c0.774,0.947,1.841,1.6,3.034,1.849l120.332,25.077
			c0.354,0.073,0.717,0.109,1.066,0.109c0.005,0,0.005,0.005,0.011,0.005c0.005,0,0.005,0,0.005,0c0.036,0,0.075-0.011,0.101,0
			c0.062,0,0.111-0.031,0.163-0.036c0.339-0.016,0.678-0.036,1.02-0.124l122.305-30.515c2.843-0.705,4.567-3.584,3.863-6.427
			C262.438,226.204,259.554,224.475,256.722,225.194z M18.412,230.988c-3.047-4.308-11.237-17.496-6.152-28.251l15.128,2.904
			c-0.567,6.359-0.386,17.337,5.104,28.283L18.412,230.988z M47.21,236.99c-0.026-0.031-0.031-0.072-0.06-0.104
			c-8.912-10.087-9.67-22.442-9.264-29.23l50.512,9.693c-0.727,5.551-1.279,17.232,4.205,29.096L47.21,236.99z M106.877,249.423
			c-8.854-11.065-8.652-24.312-8.023-30.064l24.71,4.749c-2.503,7.57-3.622,18.278,0.961,28.997L106.877,249.423z M137.736,254.875
			c-9.188-12.494-5.142-25.315-3.037-30.1l103.148-23.054c-0.544,6.675,0.29,16.399,6.473,26.564L137.736,254.875z"/>
		<path d="M272.629,166.293l-1.476,0.368c-10.626-14.535-5.924-28.351-5.722-28.92c0.684-1.823,0.311-3.871-0.974-5.339
			c-1.274-1.463-3.252-2.11-5.152-1.69l-5.69,1.271l-81.778-10.758c-2.553,3.355-5.494,6.812-8.886,10.372
			c-3.061,3.202-7.923,5.046-13.334,5.046c-1.812,0-3.558-0.207-5.209-0.614c-6.024-1.512-12.477-1.486-18.501,0.005
			c-1.644,0.409-3.392,0.608-5.191,0.608c-5.419,0-10.281-1.838-13.347-5.052c-3.451-3.622-6.421-7.133-9.007-10.537L31.88,133.759
			l-5.333-1.023c-2.014-0.404-4.062,0.415-5.266,2.063c-14.587,19.786,5.028,44.387,5.875,45.417
			c0.774,0.953,1.841,1.601,3.035,1.854l120.334,25.072c0.353,0.072,0.715,0.114,1.067,0.114c0.005,0,0.005,0.005,0.01,0.005
			s0.005,0,0.005,0c0.036,0,0.073-0.011,0.099,0c0.062,0,0.114-0.036,0.166-0.042c0.336-0.015,0.678-0.036,1.015-0.119
			l122.308-30.514c2.843-0.705,4.566-3.584,3.862-6.427C278.346,167.309,275.461,165.573,272.629,166.293z M34.319,172.082
			c-3.047-4.308-11.237-17.496-6.152-28.246l15.128,2.904c-0.567,6.354-0.386,17.332,5.103,28.283L34.319,172.082z M63.117,178.089
			c-0.026-0.036-0.031-0.077-0.06-0.108c-8.912-10.087-9.67-22.438-9.264-29.226l50.512,9.693
			c-0.728,5.552-1.279,17.233,4.205,29.091L63.117,178.089z M122.784,190.527c-8.854-11.066-8.652-24.312-8.023-30.064l24.71,4.738
			c-2.503,7.575-3.622,18.278,0.961,29.002L122.784,190.527z M153.646,195.975c-9.19-12.506-5.142-25.321-3.039-30.105
			l103.148-23.054c-0.544,6.675,0.29,16.399,6.473,26.563L153.646,195.975z"/>
		<path d="M115.201,23.486c0.15,0.037,14.698,4.037,14.656,21.963c-0.005,2.931,2.359,5.312,5.292,5.317c0.005,0,0.005,0,0.01,0
			c2.921,0,5.297-2.363,5.303-5.287c0.052-20.85-14.753-30.211-22.587-32.254c-2.853-0.725-5.732,0.966-6.47,3.798
			C110.667,19.854,112.371,22.743,115.201,23.486z"/>
		<path d="M111.209,127.551c3.106,3.257,9.056,4.036,13.421,2.954c2.879-0.717,6.473-1.29,10.582-1.29
			c4.062,0,7.614,0.572,10.476,1.284c4.37,1.087,10.319,0.313,13.427-2.949c44.366-46.523,10.103-76.243,0.099-77.113
			c-5.64-0.492-12.216,2.211-17.06,4.787c-3.972,2.11-9.927,2.149-13.896,0.039c-4.87-2.589-11.48-5.318-17.15-4.826
			C101.104,51.308,66.845,81.028,111.209,127.551z"/>
	</g>
</g>
<g>
</g>
<g>
</g>
<g>
</g>
<g>
</g>
<g>
</g>
<g>
</g>
<g>
</g>
<g>
</g>
<g>
</g>
<g>
</g>
<g>
</g>
<g>
</g>
<g>
</g>
<g>
</g>
<g>
</g>
</svg>
